<svg xmlns="http://www.w3.org/2000/svg" id="Layer_1" data-name="Layer 1" viewBox="0 0 400 140"><defs><style>.cls-1,.cls-2,.cls-3,.cls-4,.cls-5,.cls-6{fill:none}.cls-1,.cls-13,.cls-2,.cls-3,.cls-4,.cls-5,.cls-6{stroke:#555;stroke-miterlimit:10;stroke-width:2px}.cls-2{stroke-dasharray:3.86 3.86}.cls-3{stroke-dasharray:3.89 3.89}.cls-4{stroke-dasharray:3.91 3.91}.cls-5{stroke-dasharray:3.69 3.69}.cls-6{stroke-dasharray:3.87 3.87}.cls-7{fill:#555}.cls-8{fill:#ff9f2b}.cls-9{fill:#ff8c00}.cls-10,.cls-13,.cls-14{fill:#fff}.cls-11{fill:#e5e5e5}.cls-12{fill:#da4026}.cls-14{font-size:27px;font-family:SegoePro-Semibold,Segoe Pro;font-weight:700}.cls-15{fill:#d83b01}</style></defs><title>Office_2016_400x140</title><line x1="92.51" x2="94.51" y1="50.5" y2="50.5" class="cls-1"/><line x1="98.37" x2="173.58" y1="50.5" y2="50.5" class="cls-2"/><polyline points="175.51 50.5 177.51 50.5 177.51 52.5" class="cls-1"/><line x1="177.51" x2="177.51" y1="56.39" y2="85.56" class="cls-3"/><polyline points="177.51 87.5 177.51 89.5 179.51 89.5" class="cls-1"/><line x1="183.42" x2="220.56" y1="89.5" y2="89.5" class="cls-4"/><polyline points="222.51 89.5 224.51 89.5 224.51 87.5" class="cls-1"/><line x1="224.51" x2="224.51" y1="83.61" y2="54.44" class="cls-3"/><polyline points="224.51 52.5 224.51 50.5 226.51 50.5" class="cls-1"/><line x1="230.2" x2="272.66" y1="50.5" y2="50.5" class="cls-5"/><polyline points="274.51 50.5 276.51 50.5 276.51 52.5" class="cls-1"/><line x1="276.51" x2="276.51" y1="56.39" y2="85.56" class="cls-3"/><polyline points="276.51 87.5 276.51 89.5 278.51 89.5" class="cls-1"/><line x1="282.38" x2="342.4" y1="89.5" y2="89.5" class="cls-6"/><line x1="344.34" x2="346.34" y1="89.5" y2="89.5" class="cls-1"/><polygon points="339.71 97.68 338.35 96.22 345.57 89.5 338.35 82.79 339.71 81.32 348.51 89.5 339.71 97.68" class="cls-7"/><path d="M58,103.68c-.92.3-1.9.58-2.91.85,6.11-25.37,18.12-20.79,18.12-20.79l2,1.86.07.24C75.74,87.52,77.37,97.54,58,103.68Z" class="cls-8"/><path d="M58,103.68c6-20.91,16.25-18.13,17.29-17.84C75.74,87.52,77.37,97.54,58,103.68Z" class="cls-9"/><polygon points="76.27 90.64 67.73 82.1 74.56 80.38 77.77 83.61 76.27 90.64" class="cls-7"/><polygon points="77.98 71.7 54.91 70.86 51.49 67.44 71.14 58.04 79.36 61.12 77.98 71.7" class="cls-7"/><polygon points="87.74 78.68 88.6 101.74 92.02 105.16 101.41 85.52 98.33 77.3 87.74 78.68" class="cls-7"/><path d="M83.14,88.85h-.26l-.2-.18L70.51,76v-.3A50.51,50.51,0,0,1,84.39,51.16c11-11,36.82-15.61,37.91-15.8l.85-.15-.15.85s-.45,2.68-1.38,6.58c-2.51,10.56-7,24.65-14.17,31.86C96.3,85.72,84.16,88.85,83.14,88.85Z" class="cls-10"/><path d="M121,44.14c-2,8.59-6.48,23.48-14,31.06C95.81,86.43,83.69,88.73,83.06,88.85l-6.8-6.79s2.16-12.47,13.68-23.93C97.52,50.61,112.37,46.17,121,44.14Z" class="cls-11"/><path d="M123.39,34.84a111.62,111.62,0,0,0-22.12,6.58l16.2,16.19A149.1,149.1,0,0,0,123.39,34.84Z" class="cls-12"/><path d="M83.14,88.85h-.26l-.2-.18L70.51,76v-.3A50.51,50.51,0,0,1,84.39,51.16c11-11,36.82-15.61,37.91-15.8l.85-.15-.15.85s-.45,2.68-1.38,6.58c-2.51,10.56-7,24.65-14.17,31.86C96.3,85.72,84.16,88.85,83.14,88.85Z" class="cls-1"/><circle cx="94.99" cy="62.87" r="6.04" class="cls-13"/><circle cx="177" cy="50" r="20" class="cls-7"/><circle cx="224.51" cy="90" r="20" class="cls-7"/><circle cx="277" cy="50" r="20" class="cls-7"/><text class="cls-14" transform="translate(171.33 57.67)">?</text><path d="M227.54,96.68a8.57,8.57,0,0,1,.86-3.05,9.82,9.82,0,0,1,1.87-2.56,8.24,8.24,0,0,0,1.66-2.39,6.88,6.88,0,0,0,.58-2.85,7.33,7.33,0,0,0-.59-2.92,7.8,7.8,0,0,0-1.61-2.39,7.57,7.57,0,0,0-2.39-1.61,7.41,7.41,0,0,0-5.84,0,7.53,7.53,0,0,0-4,4,7.16,7.16,0,0,0-.59,2.92,6.88,6.88,0,0,0,.58,2.85,8,8,0,0,0,1.66,2.39,10,10,0,0,1,1.86,2.56,8.57,8.57,0,0,1,.86,3.05Z" class="cls-10"/><path d="M226.67,101.69a.81.81,0,0,0,.58-.25.79.79,0,0,0,.25-.59v-2.5h-5v2.5a.85.85,0,0,0,.84.84Z" class="cls-15"/><g id="success"><polygon points="274.5 53.24 270.2 48.95 268.3 50.85 274.5 57.05 286.7 44.85 284.8 42.95 274.5 53.24" class="cls-10"/></g></svg>